<?xml version="1.0" encoding="utf-8"?>
<!-- Generator: Adobe Illustrator 16.0.0, SVG Export Plug-In . SVG Version: 6.00 Build 0)  -->
<!DOCTYPE svg PUBLIC "-//W3C//DTD SVG 1.1//EN" "http://www.w3.org/Graphics/SVG/1.1/DTD/svg11.dtd">
<svg version="1.1"
	 id="Layer_1" inkscape:version="0.92.3 (2405546, 2018-03-11)" sodipodi:docname="Dark Angels [Imperium, Adeptus Astartes, Space Marines, Legion].svg" xmlns:dc="http://purl.org/dc/elements/1.1/" xmlns:cc="http://creativecommons.org/ns#" xmlns:rdf="http://www.w3.org/1999/02/22-rdf-syntax-ns#" xmlns:svg="http://www.w3.org/2000/svg" xmlns:sodipodi="http://sodipodi.sourceforge.net/DTD/sodipodi-0.dtd" xmlns:inkscape="http://www.inkscape.org/namespaces/inkscape"
	 xmlns="http://www.w3.org/2000/svg" xmlns:xlink="http://www.w3.org/1999/xlink" x="0px" y="0px" width="765.622px" height="800px"
	 viewBox="0 0 765.622 800" enable-background="new 0 0 765.622 800" xml:space="preserve">
<sodipodi:namedview  inkscape:current-layer="Layer_1" inkscape:window-maximized="1" inkscape:window-y="-8" inkscape:window-x="-8" fit-margin-bottom="0" fit-margin-right="0" inkscape:window-height="1017" inkscape:window-width="1920" inkscape:pageshadow="2" inkscape:pageopacity="0" inkscape:cy="456.1" inkscape:cx="-44.724159" inkscape:zoom="0.25871519" fit-margin-left="0" fit-margin-top="0" showgrid="false" guidetolerance="10" gridtolerance="10" objecttolerance="10" borderopacity="1" pagecolor="#ffffff" bordercolor="#666666" id="namedview9">
	</sodipodi:namedview>
<path id="path2" inkscape:connector-curvature="0" fill="#FFFFFF" d="M0,241.965c77.439-0.088,154.878-0.176,232.317-0.176
	c1.579,13.944,6.928,44.902,29.818,75.598c24.117,32.361,54.198,46.394,67.266,51.567l-30.169,277.396l-76.562-27.801l41.745-87.086
	c-5.437-3.245-11.138-6.753-16.926-10.699c-6.139-4.122-11.84-8.244-17.102-12.278c-22.802,21.838-45.604,43.763-68.406,65.6
	l-50.165-54.813l73.142-53.848c-4.385-5.525-8.858-11.401-13.331-17.716c-5.525-7.717-10.524-15.348-15.084-22.626
	c-29.116,14.119-58.145,28.151-87.261,42.271l-42.447-82.176c36.132-6.489,72.265-12.979,108.397-19.557
	c-1.315-5.087-2.456-10.787-3.333-16.927c-0.877-6.139-1.403-11.927-1.579-17.102c-39.465,0.264-78.93,0.438-118.395,0.702
	L0,241.965z"/>
<path id="path4" inkscape:connector-curvature="0" fill="#FFFFFF" d="M765.622,241.965c-77.439-0.088-154.879-0.176-232.318-0.176
	c-1.578,13.944-6.928,44.902-29.816,75.598c-24.119,32.361-54.199,46.394-67.268,51.567l30.17,277.396l76.563-27.801l-41.658-87.086
	c5.438-3.245,11.139-6.753,16.926-10.699c6.139-4.122,11.84-8.244,17.102-12.278c22.803,21.838,45.604,43.763,68.406,65.6
	l50.164-54.813l-73.141-53.848c4.385-5.525,8.857-11.401,13.33-17.716c5.525-7.717,10.523-15.348,15.084-22.626
	c29.117,14.119,58.145,28.151,87.262,42.271l42.447-82.176c-36.133-6.489-72.266-12.979-108.398-19.557
	c1.316-5.087,2.457-10.787,3.334-16.927c0.877-6.139,1.402-11.927,1.578-17.102c39.465,0.264,78.93,0.438,118.395,0.702
	L765.622,241.965z"/>
<polygon id="polygon6" fill="#FFFFFF" points="413.768,267.047 436.219,267.047 461.829,241.789 503.399,284.499 461.917,325.719 
	438.852,302.741 417.54,303.179 443.325,656.26 383.336,800.001 320.632,656.435 348.695,303.004 328.524,302.916 304.758,325.016 
	261.873,281.956 303.092,241.789 329.401,267.047 352.993,267.047 363.955,126.288 325.017,96.032 383.249,0 441.395,95.68 
	403.069,125.849 "/>
</svg>
