<?xml version="1.0" encoding="utf-8"?>
<!-- Generator: Adobe Illustrator 16.0.0, SVG Export Plug-In . SVG Version: 6.00 Build 0)  -->
<!DOCTYPE svg PUBLIC "-//W3C//DTD SVG 1.1//EN" "http://www.w3.org/Graphics/SVG/1.1/DTD/svg11.dtd">
<svg version="1.1" id="Layer_1" xmlns="http://www.w3.org/2000/svg" xmlns:xlink="http://www.w3.org/1999/xlink" x="0px" y="0px"
	 width="595.281px" height="841.891px" viewBox="0 0 595.281 841.891" enable-background="new 0 0 595.281 841.891"
	 xml:space="preserve">
<g>
	<path fill="#FFFFFF" d="M591.476,700.608c-44.299-67.737-88.967-135.107-133.021-202.845c-5.768-8.835-12.025-11.903-22.211-11.903
		c-23.068,0.123-46.262,0.246-69.332,0.246s-46.264,0-69.333,0c-23.07,0-46.263,0-69.333,0c-23.07,0-46.263,0-69.333-0.123
		c-8.344,0-14.603,1.473-19.879,9.326c-44.79,67.737-90.071,135.229-134.861,203.09c-2.823,4.295-5.399,11.78-3.436,15.094
		c2.086,3.559,9.694,5.154,14.848,5.154c52.03,0.368,104.061,0.122,156.091,0.368c5.277,0,11.413-0.123,15.584,2.454
		c26.874,16.812,55.098,32.273,73.996,58.901c10.799,15.094,20.493,30.924,30.801,46.386c5.522,8.222,12.394,8.345,15.707,0
		c18.531-47.122,53.871-77.923,96.943-101.238c7.609-4.049,15.953-6.258,24.543-6.258c50.803-0.491,101.729-0.123,152.533-0.491
		c3.436,0,6.871-1.227,10.307-2.454c2.332-0.859,3.682-3.313,3.068-5.768C594.298,707.112,593.316,703.553,591.476,700.608z"/>
	<path fill="#FFFFFF" d="M449.988,290.624c-10.922-1.35-18.652-7.117-24.543-16.566c-13.742-22.211-14.602-22.456-30.922-0.858
		c-14.48,19.021-32.275,29.819-56.326,26.015c-23.93-3.804-47.613-8.835-71.173-14.234c-10.063-2.332-15.83-0.491-17.916,10.308
		c-1.228,6.872-3.927,13.499-5.154,20.37c-6.872,38.164-31.415,56.203-68.228,60.007c-10.186,1.104-20.616,1.104-30.801,0.736
		c-11.535-0.49-22.947-2.454-34.482-3.067c-10.798-0.491-14.725,5.521-9.694,14.603c13.13,23.929,26.383,47.735,40.25,71.174
		c2.332,3.927,7.977,7.117,12.394,7.117c46.999,0.491,94.121,0.368,141.12,0.368c0-0.123,0-0.245,0-0.368
		c46.631,0,93.262,0,139.893,0c6.258,0,11.289,0.123,13.867-8.467c13.742-46.632,28.346-93.017,42.703-139.525
		c7.363-23.684,7.363-23.561-17.67-24.788C465.572,293.078,457.718,291.606,449.988,290.624z"/>
	<path fill="#FFFFFF" d="M53.871,263.627c6.013,20.861,13.498,41.478,21.352,61.725c7.363,18.898,22.579,29.329,42.09,32.273
		c13.008,1.964,26.261,3.191,39.391,2.577c43.072-2.331,58.289-14.357,71.787-55.221c4.172-12.885,7.731-25.893,11.781-39.636
		c4.663,1.104,8.467,2.209,12.517,2.822c29.206,4.663,58.289,9.694,87.617,13.498c13.498,1.718,25.893-3.927,33.5-15.094
		c8.713-12.762,15.83-26.751,22.58-40.74c1.104-2.209-2.086-8.468-4.908-10.186c-8.1-4.785-16.813-8.467-25.525-12.148
		c-53.258-22.824-106.392-45.771-159.772-68.105c-4.049-1.718-11.412-0.491-14.848,2.331
		c-44.177,35.955-87.985,72.278-131.425,109.092C55.834,250.252,52.521,258.842,53.871,263.627z"/>
	<path fill="#FFFFFF" d="M424.341,214.297c0,9.939-0.369,19.757,0.123,29.696c0.98,20.738,19.143,33.133,47.611,31.047
		c6.873-0.491,16.566-4.663,19.389-10.063c17.549-34.237,36.078-68.229,49.822-104.061c11.289-29.697-2.576-63.565-31.906-75.714
		c-27.979-11.535-50.434-3.682-61.725,22.701C433.054,141.65,423.115,176.747,424.341,214.297z"/>
	<path fill="#FFFFFF" d="M76.205,185.214c4.418,10.554,9.449,11.78,19.021,4.295c24.297-19.144,48.349-38.532,72.155-58.289
		c3.068-2.576,6.626-7.485,6.258-11.044c-2.209-29.819-8.59-58.656-21.475-85.776c-5.768-12.517-16.198-19.021-30.065-15.584
		c-16.566,4.172-33.132,9.08-48.962,15.707c-18.775,7.73-25.77,23.315-23.438,39.391C52.521,115.144,61.847,150.854,76.205,185.214z
		"/>
	<path fill="#FFFFFF" d="M323.103,162.758L323.103,162.758c22.58,9.939,45.035,20.124,67.369,30.31
		c0.369,0.123,0.613,0.245,0.982,0.368c0.244,0.123,0.49,0.245,0.736,0.245c0.49,0.123,0.859,0.246,1.227,0.368
		c0.123,0,0.369,0.123,0.49,0.123c0.613,0.123,1.105,0.245,1.596,0.368c0.123,0,0.246,0,0.369,0
		c0.367,0.123,0.736,0.123,1.227,0.123c0.123,0,0.367,0,0.49,0c0.246,0,0.613,0,0.859,0s0.367,0,0.49-0.123
		c0.246,0,0.492-0.123,0.736-0.123c0.123,0,0.369-0.122,0.492-0.122c0.244-0.123,0.49-0.123,0.736-0.246
		c0.121-0.122,0.367-0.122,0.49-0.245c0.246-0.123,0.367-0.245,0.613-0.368c0.123-0.123,0.369-0.245,0.49-0.245
		c0.246-0.123,0.369-0.246,0.613-0.368c0.123-0.123,0.246-0.246,0.492-0.368c0.123-0.123,0.367-0.368,0.49-0.491
		c0.123-0.122,0.246-0.245,0.369-0.49c0.121-0.246,0.367-0.368,0.49-0.614c0.123-0.122,0.246-0.368,0.367-0.49
		c0.123-0.246,0.246-0.491,0.492-0.736c0.123-0.246,0.244-0.368,0.367-0.614c0.123-0.245,0.246-0.613,0.369-0.858
		c0.121-0.246,0.121-0.368,0.244-0.613c0.123-0.368,0.246-0.736,0.369-1.104c0.123-0.123,0.123-0.368,0.244-0.491
		c0.246-0.613,0.369-1.104,0.615-1.718c4.662-16.689,10.799-33.01,14.111-49.944c4.049-19.757,6.504-39.759,8.344-59.884
		c1.229-14.357-6.381-24.052-20.002-29.206c-18.529-7.117-37.672-9.203-57.061-5.89c-19.512,3.313-31.17,14.479-34.359,33.868
		c-2.455,14.972-3.438,30.311-5.523,48.84c0,1.104,0,2.332,0,3.559c0,3.068,0.123,6.504,0.123,10.309c0,0.613,0,1.104,0,1.718
		c0,1.473,0,3.067-0.123,4.663c0,0.245,0,0.49,0,0.736c0,0.981-0.123,1.963-0.123,2.944l0,0
		C312.55,154.413,315.373,159.444,323.103,162.758z"/>
	<path fill="#FFFFFF" d="M210.453,115.759c23.561,10.798,47.613,20.738,71.296,31.169c9.203,4.049,13.007,0.49,14.357-8.345
		c4.663-29.451,6.504-58.902,0.368-88.476c-6.504-31.783-17.18-41.109-49.576-41.109c-41.477,0-50.067,8.713-49.944,56.448
		c0.859,8.712,1.841,24.052,4.418,39.022C201.985,108.763,206.403,113.918,210.453,115.759z"/>
</g>
</svg>
