<?xml version="1.0" encoding="utf-8"?>
<!-- Generator: Adobe Illustrator 16.0.0, SVG Export Plug-In . SVG Version: 6.00 Build 0)  -->
<!DOCTYPE svg PUBLIC "-//W3C//DTD SVG 1.1//EN" "http://www.w3.org/Graphics/SVG/1.1/DTD/svg11.dtd">
<svg version="1.1"
	 id="Layer_1" inkscape:version="0.92.3 (2405546, 2018-03-11)" sodipodi:docname="Ultramarines [Imperium, Adeptus Astartes, Space Marines, Legion].svg" xmlns:dc="http://purl.org/dc/elements/1.1/" xmlns:cc="http://creativecommons.org/ns#" xmlns:rdf="http://www.w3.org/1999/02/22-rdf-syntax-ns#" xmlns:svg="http://www.w3.org/2000/svg" xmlns:sodipodi="http://sodipodi.sourceforge.net/DTD/sodipodi-0.dtd" xmlns:inkscape="http://www.inkscape.org/namespaces/inkscape"
	 xmlns="http://www.w3.org/2000/svg" xmlns:xlink="http://www.w3.org/1999/xlink" x="0px" y="0px" width="798.137px" height="800px"
	 viewBox="0 0 798.137 800" enable-background="new 0 0 798.137 800" xml:space="preserve">
<sodipodi:namedview  inkscape:current-layer="Layer_1" inkscape:window-maximized="1" inkscape:window-y="-8" inkscape:window-x="-8" inkscape:pagecheckerboard="true" fit-margin-bottom="0" fit-margin-right="0" inkscape:window-height="1017" inkscape:window-width="1920" inkscape:pageshadow="2" inkscape:pageopacity="0" inkscape:cy="451.2" inkscape:cx="-25.84322" inkscape:zoom="0.2616408" fit-margin-left="0" fit-margin-top="0" showgrid="false" guidetolerance="10" gridtolerance="10" objecttolerance="10" borderopacity="1" pagecolor="#ffffff" bordercolor="#666666" id="namedview7">
	</sodipodi:namedview>
<g id="g4" transform="scale(0.88672135)">
	<path id="path2" inkscape:connector-curvature="0" fill="#FFFFFF" d="M0,214C0,142.7,0,71.4,0,0c132.7,0,265.3,0,398,0
		c0.2,1.6,0.5,3.301,0.5,4.9c0,61.301,0,122.601,0.1,184.001c0,3.7-1.301,5-4.7,6c-89.3,25.9-147.5,83.8-168.1,174.1
		C205,460.001,231.7,538.601,303,599.5c52.299,44.7,113.7,63.401,182.4,52.1c126.2-20.8,211.101-138,192.799-265
		c-13.198-91.8-81.698-168.4-171.5-191.5c-4.399-1.1-5.2-3.1-5.2-7.1c0.101-60.7,0.101-121.3,0.101-182.001c0-2,0.3-4,0.5-5.9
		c132.7,0,265.299,0,397.999,0c0,71.3,0,142.7,0,214.001c-55.299,0-110.599-0.1-165.9-0.1c-0.599,0-1.099,0.4-1.5,0.5
		c10.002,11.1,20.302,21.5,29.502,32.9c81.299,100.7,109.198,214.9,82.698,341.301C809.701,756.401,672.001,880.2,498.4,899.3
		c-9.7,1.1-19.5,1.9-29.299,2.9c-12.7,0-25.3,0-38,0c-1.6-0.3-3.2-0.699-4.9-0.8c-24.301-1.4-48.401-4.7-72.1-10.2
		c-203.8-47.199-331.6-236.999-304.5-443c11.8-89.6,51.4-165.9,115-229.9c1.1-1.1,2.1-2.3,3.8-4.199c-2.6,0-4.3,0-5.9,0
		c-19.5,0-39,0-58.5,0C69.3,213.9,34.6,214,0,214z"/>
</g>
</svg>
